<svg width="250" height="243" viewBox="0 0 250 243" fill="none" xmlns="http://www.w3.org/2000/svg">
<path d="M249.525 121.124C249.525 54.229 193.667 0 124.763 0C55.8582 0 0 54.229 0 121.124C0 188.019 55.8582 242.247 124.763 242.247C193.667 242.247 249.525 188.019 249.525 121.124Z" fill="url(#paint0_linear_1730_9745)"/>
<path d="M67.5351 126.295L152.579 44.299C154.168 42.7671 156.725 44.6312 155.652 46.5395L123.999 102.862C123.293 104.117 124.229 105.65 125.704 105.65H180.404C182.166 105.65 183.018 107.745 181.73 108.913L85.8729 195.766C84.1541 197.323 81.596 195.129 82.9758 193.281L128.352 132.509C129.283 131.263 128.365 129.517 126.78 129.517H68.9034C67.1702 129.517 66.3053 127.48 67.5351 126.295Z" fill="white"/>
<defs>
<linearGradient id="paint0_linear_1730_9745" x1="124.763" y1="0" x2="124.763" y2="242.247" gradientUnits="userSpaceOnUse">
<stop stop-color="#7BCBD4"/>
<stop offset="1" stop-color="#29C6B7"/>
</linearGradient>
</defs>
</svg>
