<svg width="89" height="100" viewBox="0 0 89 100" fill="none" xmlns="http://www.w3.org/2000/svg">
<path fill-rule="evenodd" clip-rule="evenodd" d="M52.9723 11.4448L73.507 23.3013C74.0999 22.674 74.7802 22.1356 75.527 21.7028C79.7856 19.2545 85.2177 20.7081 87.6914 24.9671C90.1397 29.226 88.6861 34.6578 84.4271 37.1315C83.6859 37.5583 82.8872 37.8764 82.0555 38.0758V61.7974C82.8781 61.9972 83.6681 62.3131 84.4018 62.7355C88.6861 65.2093 90.1397 70.6413 87.666 74.9003C85.2177 79.1589 79.7602 80.6126 75.5013 78.1646C74.6762 77.6912 73.9329 77.0878 73.3001 76.3776L52.8904 88.1611C53.1893 89.0662 53.3411 90.0133 53.34 90.9664C53.34 95.8628 49.3619 99.8669 44.4398 99.8669C39.5177 99.8669 35.5397 95.8881 35.5397 90.9664C35.5397 90.0915 35.6654 89.2464 35.8997 88.4482L15.3705 76.5953C14.7842 77.2101 14.1134 77.7385 13.3784 78.1646C9.09407 80.6126 3.66198 79.1589 1.21361 74.9003C-1.23441 70.6413 0.219268 65.2093 4.47787 62.7355C5.2115 62.313 6.00152 61.9971 6.82416 61.7971V38.0758C5.99244 37.8764 5.19372 37.5583 4.45252 37.1315C0.193576 34.6835 -1.2601 29.226 1.18827 24.9671C3.63663 20.7081 9.09372 19.2545 13.3527 21.7028C14.0953 22.1333 14.7723 22.6682 15.3629 23.2912L35.9035 11.4316C35.6614 10.6098 35.5389 9.7574 35.5397 8.90064C35.5397 3.97926 39.5177 0.000488281 44.4398 0.000488281C49.3619 0.000488281 53.34 3.97891 53.34 8.90064C53.34 9.78527 53.2115 10.639 52.9723 11.4448ZM50.8329 15.0979L71.4166 26.9822C71.0889 28.1279 70.9949 29.3279 71.1402 30.5107C71.2856 31.6935 71.6673 32.8349 72.2627 33.8672C73.5157 36.0469 75.5568 37.4919 77.8222 38.055V61.8061C77.7066 61.8342 77.5917 61.8651 77.4775 61.8978L50.5937 15.3358C50.675 15.258 50.7548 15.1785 50.8329 15.0979ZM38.2915 15.341L11.4081 61.9023C11.2918 61.8687 11.1749 61.8374 11.0574 61.8085V38.055C13.3228 37.4919 15.3639 36.0469 16.6169 33.8672C17.2135 32.833 17.5956 31.6891 17.7404 30.5039C17.8852 29.3187 17.7897 28.1164 17.4595 26.969L38.0373 15.0882C38.1203 15.174 38.205 15.2587 38.2915 15.341ZM46.9267 17.4501L73.8039 64.001C73.1882 64.5885 72.6605 65.2617 72.237 65.9998C71.8146 66.7334 71.4987 67.5234 71.2989 68.3461H17.5814C17.3813 67.5234 17.0652 66.7334 16.6426 65.9998C16.2177 65.2668 15.6909 64.5977 15.0782 64.0125L41.9606 17.4522C42.7665 17.6843 43.6011 17.8016 44.4398 17.8008C45.3033 17.8008 46.1376 17.6786 46.9267 17.4501ZM51.0218 84.9705L71.4718 73.1633C71.4105 72.9706 71.3558 72.7758 71.3076 72.5793H17.57C17.5415 72.695 17.5106 72.8095 17.4776 72.9238L38.0276 84.7889C38.8575 83.926 39.8534 83.2399 40.9554 82.772C42.0573 82.3041 43.2426 82.064 44.4398 82.0662C45.6789 82.0641 46.9047 82.3214 48.0383 82.8216C49.1719 83.3218 50.1882 84.0538 51.0218 84.9705Z" fill="#E535AB"/>
</svg>
