<svg width="512" height="512" viewBox="0 0 512 512" fill="none" xmlns="http://www.w3.org/2000/svg">
<path d="M256 498.982C390.197 498.982 498.984 390.195 498.984 256C498.984 121.804 390.197 13.0169 256 13.0169C121.805 13.0169 13.0176 121.804 13.0176 256C13.0176 390.195 121.805 498.982 256 498.982Z" fill="white"/>
<path d="M256 0C114.615 0 0 114.615 0 256C0 397.386 114.615 512 256 512C397.386 512 512 397.386 512 256C512 114.615 397.386 0 256 0ZM256 26.0339C383.006 26.0339 485.966 128.993 485.966 256C485.966 383.006 383.006 485.966 256 485.966C128.993 485.966 26.0339 383.006 26.0339 256C26.0339 128.993 128.993 26.0339 256 26.0339Z" fill="#4000BF"/>
<path d="M258.891 73.7627C359.539 73.7627 441.13 155.353 441.13 256C441.13 356.646 359.539 438.237 258.891 438.237C158.245 438.237 76.6543 356.646 76.6543 256C76.6543 231.403 81.5276 207.944 90.3613 186.534C103.26 204.099 124.06 215.502 147.524 215.502C186.666 215.502 218.394 183.773 218.394 144.633C218.394 121.169 206.992 100.368 189.426 87.4699C210.835 78.636 234.294 73.7627 258.891 73.7627Z" fill="url(#paint0_linear_340_662)"/>
<defs>
<linearGradient id="paint0_linear_340_662" x1="258.891" y1="438.237" x2="258.891" y2="73.7627" gradientUnits="userSpaceOnUse">
<stop stop-color="#7400E1"/>
<stop offset="1" stop-color="#4000BF"/>
</linearGradient>
</defs>
</svg>
