<svg width="30" height="30" viewBox="0 0 30 30" fill="none" xmlns="http://www.w3.org/2000/svg">
<path d="M15.0001 0.600098C7.0471 0.600098 0.600098 7.0471 0.600098 15.0001C0.600098 22.9531 7.0471 29.4001 15.0001 29.4001C22.9531 29.4001 29.4001 22.9531 29.4001 15.0001C29.4001 7.0471 22.9531 0.600098 15.0001 0.600098ZM11.4751 20.9686H8.5591V11.5846H11.4751V20.9686ZM9.9991 10.4326C9.0781 10.4326 8.4826 9.7801 8.4826 8.9731C8.4826 8.1496 9.0961 7.5166 10.0366 7.5166C10.9771 7.5166 11.5531 8.1496 11.5711 8.9731C11.5711 9.7801 10.9771 10.4326 9.9991 10.4326ZM22.1251 20.9686H19.2091V15.7681C19.2091 14.5576 18.7861 13.7356 17.7316 13.7356C16.9261 13.7356 16.4476 14.2921 16.2361 14.8276C16.1581 15.0181 16.1386 15.2881 16.1386 15.5566V20.9671H13.2211V14.5771C13.2211 13.4056 13.1836 12.4261 13.1446 11.5831H15.6781L15.8116 12.8866H15.8701C16.2541 12.2746 17.1946 11.3716 18.7681 11.3716C20.6866 11.3716 22.1251 12.6571 22.1251 15.4201V20.9686Z" fill="#666666"/>
</svg>
