<svg width="97" height="100" viewBox="0 0 97 100" fill="none" xmlns="http://www.w3.org/2000/svg">
<path d="M96.4716 59.9027C95.8902 58.137 94.3673 56.9072 92.3978 56.6121C91.4691 56.4731 90.4055 56.5323 89.1469 56.7925C86.9532 57.2464 85.3257 57.4192 84.138 57.4526C88.6212 49.8623 92.2667 41.2068 94.3654 33.059C97.759 19.8842 95.9455 13.8823 93.8264 11.1675C88.2183 3.98172 80.0361 0.121465 70.1652 0.00334804C64.8994 -0.0612175 60.2768 0.981325 57.8653 1.73104C55.62 1.33378 53.2059 1.11198 50.6728 1.07096C45.9244 0.994998 41.729 2.03298 38.1442 4.1663C36.1595 3.4933 32.9742 2.54457 29.2958 1.93917C20.6444 0.514935 13.6716 1.6247 8.57139 5.23771C2.3955 9.61221 -0.467472 17.2127 0.0620198 27.828C0.230185 31.1984 2.1103 41.4529 5.0706 51.178C6.77195 56.7678 8.58616 61.4097 10.4629 64.976C13.1243 70.033 15.9722 73.011 19.1692 74.0805C20.961 74.679 24.2168 75.0983 27.6411 72.2385C28.0751 72.7656 28.6542 73.2894 29.4227 73.7759C30.3987 74.3931 31.5922 74.8974 32.7841 75.1963C37.0795 76.273 41.1029 76.0038 44.5356 74.4945C44.5568 75.1067 44.573 75.6916 44.5867 76.1967C44.6094 77.0159 44.6321 77.8192 44.6621 78.5704C44.8654 83.6498 45.2101 87.5994 46.2312 90.3628C46.2873 90.5147 46.3626 90.7464 46.4422 90.9921C46.9516 92.5561 47.8034 95.1744 49.9706 97.2249C52.2147 99.3491 54.9292 100 57.4153 100C58.6622 100 59.8518 99.8364 60.8953 99.6123C64.6146 98.8129 68.8388 97.5952 71.8945 93.2321C74.7836 89.1075 76.188 82.8952 76.4422 73.1067C76.4751 72.8298 76.5054 72.5655 76.5346 72.3137L76.5952 71.7964L77.2758 71.8564L77.4512 71.8682C81.2394 72.0414 85.8715 71.2358 88.7163 69.9107C90.9642 68.8647 98.1676 65.0512 96.4716 59.9027Z" fill="black"/>
<path d="M89.9943 60.9039C78.7303 63.234 77.9558 59.4098 77.9558 59.4098C89.8485 41.7139 94.8204 19.2515 90.5303 13.7539C78.8254 -1.24237 58.5641 5.84997 58.2259 6.0338L58.1172 6.05354C55.8917 5.59019 53.4014 5.31446 50.6021 5.2685C45.5056 5.18495 41.6393 6.60843 38.7055 8.83936C38.7055 8.83936 2.56141 -6.092 4.24268 27.6181C4.60022 34.7894 14.4932 81.8809 26.2927 67.6571C30.6056 62.4558 34.773 58.0581 34.773 58.0581C36.8424 59.4367 39.3202 60.1401 41.9177 59.8876L42.1196 59.7159C42.0567 60.3615 42.0855 60.9931 42.2002 61.741C39.1604 65.1466 40.0539 65.7444 33.9772 66.9989C27.8282 68.2697 31.4403 70.5318 33.7988 71.1235C36.658 71.8402 43.2725 72.8557 47.7417 66.5819L47.5637 67.2978C48.7545 68.2545 49.5908 73.52 49.4507 78.2937C49.3105 83.067 49.217 86.3443 50.1551 88.9041C51.0941 91.4639 52.0292 97.2236 60.0178 95.5072C66.6925 94.0728 70.1516 90.3557 70.633 84.1551C70.9743 79.7472 71.7473 80.3989 71.7958 76.4577L72.4158 74.5922C73.1305 68.6168 72.5294 66.689 76.6415 67.5857L77.6414 67.6738C80.6676 67.8117 84.6293 67.1854 86.9545 66.1018C91.9608 63.7721 94.9302 59.8819 89.9936 60.9039H89.9943Z" fill="#336791"/>
<path d="M40.8212 30.8251C39.8062 30.6834 38.8869 30.8144 38.4218 31.1676C38.1605 31.3663 38.0794 31.5964 38.0575 31.7548C37.9991 32.1745 38.2923 32.6386 38.4726 32.8779C38.9824 33.5554 39.727 34.021 40.4641 34.1236C40.5709 34.1388 40.6773 34.1456 40.783 34.1456C42.012 34.1456 43.1297 33.1859 43.2282 32.4775C43.3513 31.5903 42.0669 30.999 40.8212 30.8254V30.8251ZM74.4482 30.8532C74.3512 30.1578 73.1172 29.9595 71.9461 30.1228C70.7766 30.2861 69.6426 30.8156 69.7373 31.5125C69.813 32.0545 70.789 32.9796 71.9442 32.9796C72.042 32.9796 72.1404 32.9732 72.2397 32.9591C73.0108 32.852 73.5766 32.361 73.8456 32.078C74.2546 31.6466 74.4917 31.1657 74.4482 30.8532Z" fill="white"/>
<path d="M93.7425 60.6392C93.313 59.3368 91.9306 58.9179 89.6339 59.3934C82.8145 60.8048 80.3723 59.8272 79.5705 59.2351C84.8711 51.1378 89.2316 41.3496 91.584 32.2174C92.6983 27.8915 93.3138 23.874 93.3642 20.5994C93.4198 17.0053 92.8093 14.3642 91.5503 12.7508C86.4743 6.2468 79.0243 2.75798 70.0063 2.66227C63.8065 2.59238 58.5684 4.18336 57.5529 4.63076C55.4145 4.09752 53.0833 3.77014 50.5453 3.72836C45.8912 3.65278 41.8681 4.77014 38.5374 7.04779C37.0906 6.50772 33.3515 5.22058 28.7789 4.48188C20.8736 3.20576 14.5917 4.17272 10.1088 7.35733C4.75968 11.1576 2.29022 17.9506 2.76858 27.5474C2.92955 30.776 4.76422 40.7085 7.65939 50.2206C11.4704 62.7402 15.6131 69.8276 19.9718 71.2857C20.482 71.4562 21.0702 71.5755 21.719 71.5755C23.309 71.5755 25.2584 70.8569 27.2866 68.4117C29.7604 65.4359 32.3195 62.5322 34.9605 59.7045C36.6739 60.6266 38.5563 61.1416 40.4815 61.1933C40.4853 61.2438 40.4902 61.2943 40.4948 61.3445C40.1634 61.7407 39.8389 62.1427 39.5214 62.5503C38.1874 64.2484 37.9098 64.602 33.6159 65.4884C32.3944 65.7414 29.1504 66.4117 29.1027 68.692C29.0512 71.1835 32.9376 72.2299 33.3803 72.3408C34.9234 72.7281 36.41 72.9192 37.8276 72.9192C41.2754 72.9192 44.3096 71.7828 46.7343 69.5842C46.6597 78.4661 47.029 87.2182 48.0925 89.8848C48.9636 92.0678 51.0915 97.4028 57.8128 97.4025C58.799 97.4025 59.8845 97.2874 61.0787 97.0307C68.0936 95.5229 71.1399 92.4138 72.3181 85.5596C72.9488 81.8965 74.0309 73.1493 74.5399 68.4573C75.614 68.7934 76.9968 68.9473 78.4918 68.9469C81.6097 68.9469 85.2074 68.2826 87.4636 67.2325C89.9982 66.0521 94.572 63.1557 93.7425 60.6392ZM77.0374 28.9336C77.0143 30.3188 76.8241 31.5763 76.6227 32.8889C76.4056 34.3006 76.1814 35.7601 76.125 37.5319C76.0693 39.2562 76.284 41.0488 76.4916 42.7826C76.9113 46.2843 77.3419 49.8894 75.675 53.4466C75.3981 52.9546 75.1515 52.4461 74.9365 51.924C74.7293 51.4203 74.2793 50.6114 73.6563 49.4917C71.2327 45.1332 65.5571 34.9265 68.4625 30.7616C69.3279 29.522 71.5243 28.2474 77.0374 28.9336ZM70.3547 5.46707C78.435 5.64596 84.8268 8.67713 89.3521 14.4759C92.8229 18.9237 89.001 39.162 77.9365 56.6217C77.8253 56.4798 77.7134 56.3384 77.601 56.1974L77.4608 56.022C80.32 51.287 79.761 46.6022 79.2633 42.4488C79.0588 40.7442 78.8656 39.1343 78.9148 37.6219C78.9656 36.0192 79.1769 34.6443 79.3815 33.315C79.6326 31.6769 79.8882 29.9819 79.8178 27.9838C79.8704 27.7741 79.8916 27.5265 79.864 27.2325C79.6841 25.3165 77.5025 19.5819 73.056 14.3916C70.6236 11.5526 67.0766 8.37557 62.2335 6.23275C64.3167 5.79978 67.1653 5.39605 70.3547 5.46707ZM25.1402 66.6221C22.9056 69.3164 21.3626 68.7999 20.8551 68.6305C17.5486 67.5245 13.7118 60.5165 10.3292 49.4036C7.40222 39.7879 5.69178 30.1186 5.55619 27.4072C5.12896 18.8322 7.20186 12.856 11.7177 9.64447C19.067 4.41845 31.1499 7.54647 36.0051 9.13288C35.9354 9.20201 35.8627 9.26657 35.7937 9.33683C27.8263 17.4053 28.0153 31.1904 28.035 32.0332C28.0343 32.3583 28.0615 32.8186 28.0987 33.4517C28.2358 35.7704 28.491 40.0857 27.8093 44.9725C27.176 49.5138 28.5721 53.9585 31.6388 57.1674C31.9536 57.4961 32.2844 57.809 32.63 58.1048C31.265 59.5708 28.2983 62.8128 25.1402 66.6221ZM33.6542 55.2309C31.1824 52.6444 30.0598 49.047 30.5738 45.3599C31.2934 40.1977 31.0279 35.7016 30.8851 33.2861C30.8651 32.9481 30.8472 32.6519 30.837 32.4183C32.0009 31.3833 37.3947 28.4855 41.2413 29.3693C42.9964 29.7722 44.066 30.9709 44.5107 33.0324C46.812 43.7059 44.8152 48.1545 43.2108 51.7295C42.8801 52.4659 42.5677 53.1621 42.301 53.8822L42.0942 54.439C41.5708 55.8465 41.0837 57.1553 40.7819 58.398C38.1541 58.3904 35.5979 57.2647 33.6542 55.2305V55.2309ZM34.0575 69.6252C33.2902 69.433 32.6001 69.0992 32.1952 68.8223C32.5334 68.6628 33.1353 68.4455 34.1791 68.2298C39.2305 67.1873 40.0107 66.4512 41.7144 64.2822C42.1048 63.7847 42.5476 63.221 43.1608 62.5344L43.1616 62.5336C44.0747 61.5082 44.4925 61.6821 45.25 61.9973C45.8639 62.2518 46.462 63.0235 46.7044 63.8728C46.8192 64.2738 46.9479 65.035 46.5264 65.6274C42.9676 70.6241 37.7818 70.5599 34.0575 69.6252ZM60.4939 94.2938C54.3142 95.6216 52.1262 92.4598 50.6843 88.8452C49.7537 86.5118 49.2962 75.9891 49.6208 64.3684C49.6249 64.2138 49.603 64.0646 49.5605 63.924C49.5226 63.6466 49.4649 63.3721 49.3878 63.1029C48.9053 61.4121 47.7293 59.9977 46.3184 59.4113C45.7579 59.1785 44.7292 58.7512 43.493 59.0683C43.7566 57.9791 44.2137 56.7489 44.7095 55.417L44.9174 54.8568C45.1515 54.2251 45.4454 53.5708 45.756 52.878C47.435 49.1378 49.7344 44.0147 47.2388 32.4411C46.3041 28.1061 43.1824 25.9891 38.4503 26.4809C35.6134 26.7753 33.0179 27.923 31.7233 28.5812C31.4449 28.7225 31.1904 28.8592 30.9525 28.9921C31.3139 24.6245 32.6789 16.4618 37.7852 11.2974C41.0004 8.04628 45.2822 6.4405 50.4991 6.52709C60.7784 6.69572 67.3702 11.9855 71.0902 16.3939C74.296 20.1922 76.0318 24.0187 76.7245 26.0825C71.5148 25.5512 67.9716 26.5823 66.1756 29.1573C62.268 34.7586 68.3132 45.6299 71.2186 50.8548C71.7515 51.8123 72.2113 52.6399 72.356 52.9916C73.3021 55.2909 74.527 56.826 75.4212 57.9464C75.6955 58.2897 75.9613 58.6228 76.1636 58.9137C74.5857 59.3699 71.7515 60.4238 72.0098 65.692C71.8015 68.3354 70.3202 80.7115 69.5677 85.0841C68.5742 90.8608 66.4543 93.0124 60.4939 94.2942V94.2938ZM86.2884 64.6939C84.6749 65.4448 81.9748 66.008 79.4099 66.1292C76.5768 66.2621 75.1345 65.8109 74.7952 65.5332C74.6361 62.2503 75.8545 61.9073 77.1442 61.5442C77.3468 61.4873 77.5445 61.4314 77.7354 61.3646C77.854 61.4614 77.9839 61.5575 78.1263 61.6517C80.4033 63.1588 84.4647 63.3213 90.1986 62.1344L90.2615 62.1219C89.488 62.8469 88.1647 63.82 86.2884 64.6939Z" fill="white"/>
</svg>
