<svg width="512" height="512" viewBox="0 0 512 512" fill="none" xmlns="http://www.w3.org/2000/svg">
<path d="M509.906 288.506C527.823 148.243 428.769 20.0105 288.762 2.09376C148.755 -15.823 20.0105 83.2312 2.09376 223.238C-15.823 363.245 83.2312 491.734 223.238 509.906C363.501 527.823 491.734 428.769 509.906 288.506Z" fill="#FF6C37"/>
<path d="M348.399 164.369L240.387 272.381L209.928 241.923C316.149 135.702 326.643 144.916 348.399 164.369Z" fill="white"/>
<path d="M240.387 274.941C239.619 274.941 239.107 274.685 238.595 274.173L207.881 243.714C206.857 242.69 206.857 241.155 207.881 240.131C315.893 132.118 327.155 142.357 349.935 162.833C350.447 163.345 350.703 163.857 350.703 164.625C350.703 165.392 350.447 165.904 349.935 166.416L241.923 274.173C241.667 274.685 240.899 274.941 240.387 274.941ZM213.512 241.923L240.387 268.798L344.56 164.625C325.619 147.732 312.822 142.612 213.512 241.923Z" fill="#FF6C37"/>
<path d="M271.357 303.352L241.922 273.917L349.935 165.904C378.858 195.083 335.602 242.434 271.357 303.352Z" fill="white"/>
<path d="M271.357 305.911C270.589 305.911 270.077 305.655 269.565 305.143L240.131 275.709C239.619 275.197 239.619 274.685 239.619 273.917C239.619 273.149 239.875 272.637 240.387 272.125L348.399 164.113C349.423 163.089 350.959 163.089 351.982 164.113C358.637 170.256 362.221 178.958 361.965 187.916C361.453 216.327 329.203 252.417 273.405 305.143C272.637 305.655 271.869 305.911 271.357 305.911ZM245.506 273.917C261.887 290.554 268.797 297.209 271.357 299.768C314.357 258.816 356.078 216.839 356.334 187.916C356.59 181.262 354.03 174.607 349.679 169.488L245.506 273.917Z" fill="#FF6C37"/>
<path d="M210.44 242.69L232.196 264.447C232.708 264.958 232.708 265.47 232.196 265.982C231.94 266.238 231.94 266.238 231.684 266.238L186.636 275.964C184.333 276.22 182.285 274.685 181.773 272.381C181.517 271.101 182.029 269.822 182.797 269.054L208.904 242.946C209.416 242.435 210.184 242.179 210.44 242.69Z" fill="white"/>
<path d="M185.869 278.524C182.029 278.524 179.214 275.453 179.214 271.613C179.214 269.822 179.982 268.03 181.261 266.75L207.369 240.643C208.905 239.363 210.952 239.363 212.488 240.643L234.244 262.399C235.78 263.679 235.78 265.982 234.244 267.518C233.732 268.03 233.22 268.286 232.452 268.542L187.404 278.268C186.892 278.268 186.381 278.524 185.869 278.524ZM209.672 245.506L184.589 270.589C184.077 271.101 183.821 271.869 184.333 272.637C184.589 273.405 185.357 273.661 186.125 273.405L228.357 264.191L209.672 245.506Z" fill="#FF6C37"/>
<path d="M405.477 104.475C389.096 88.6062 362.733 89.1181 346.863 105.755C330.994 122.392 331.506 148.499 348.143 164.369C361.709 177.422 382.185 179.726 398.31 170L369.131 140.821L405.477 104.475Z" fill="white"/>
<path d="M376.81 178.446C352.495 178.446 332.786 158.738 332.786 134.422C332.786 110.106 352.495 90.3979 376.81 90.3979C388.072 90.3979 399.078 94.7491 407.269 102.684C407.781 103.196 408.037 103.707 408.037 104.475C408.037 105.243 407.781 105.755 407.269 106.267L372.715 140.821L399.846 167.952C400.87 168.976 400.87 170.511 399.846 171.535C399.59 171.791 399.59 171.791 399.334 172.047C392.679 176.142 384.745 178.446 376.81 178.446ZM376.81 95.7729C355.31 95.7729 337.905 113.178 338.161 134.678C338.161 156.178 355.566 173.583 377.066 173.327C382.953 173.327 388.84 172.047 394.215 169.232L367.34 142.612C366.828 142.101 366.572 141.589 366.572 140.821C366.572 140.053 366.828 139.541 367.34 139.029L401.638 104.731C394.727 98.8444 386.025 95.7729 376.81 95.7729Z" fill="#FF6C37"/>
<path d="M406.245 105.243L405.733 104.731L369.131 140.821L398.054 169.744C400.87 167.952 403.685 165.904 405.989 163.601C422.37 147.476 422.37 121.368 406.245 105.243Z" fill="white"/>
<path d="M398.31 172.559C397.542 172.559 397.03 172.303 396.518 171.791L367.34 142.612C366.828 142.101 366.572 141.589 366.572 140.821C366.572 140.053 366.828 139.541 367.34 139.029L403.685 102.684C404.709 101.66 406.245 101.66 407.268 102.684L408.036 103.196C425.185 120.344 425.185 147.988 408.292 165.392C405.733 167.952 402.917 170.256 399.846 172.047C399.078 172.303 398.566 172.559 398.31 172.559ZM372.715 140.821L398.566 166.672C400.614 165.392 402.661 163.601 404.197 162.065C418.786 147.476 419.554 123.672 405.477 108.315L372.715 140.821Z" fill="#FF6C37"/>
<path d="M352.75 168.976C346.608 162.833 336.625 162.833 330.482 168.976L233.988 265.47L250.113 281.595L352.239 192.012C358.893 186.381 359.405 176.398 353.774 169.744C353.262 169.488 353.006 169.232 352.75 168.976Z" fill="white"/>
<path d="M249.857 284.155C249.089 284.155 248.577 283.899 248.065 283.387L231.94 267.262C230.916 266.238 230.916 264.702 231.94 263.679L328.435 167.184C335.602 160.017 347.12 160.017 354.286 167.184C361.453 174.351 361.453 185.869 354.286 193.035C354.03 193.291 353.774 193.547 353.518 193.803L251.393 283.387C251.137 283.899 250.625 284.155 249.857 284.155ZM237.571 265.47L250.113 278.012L350.447 189.964C356.078 185.357 356.59 176.91 351.983 171.279C347.375 165.648 338.929 165.136 333.298 169.744C333.042 170 332.786 170.256 332.274 170.511L237.571 265.47Z" fill="#FF6C37"/>
<path d="M160.017 375.275C158.993 375.786 158.481 376.81 158.737 377.834L163.088 396.263C164.112 398.822 162.577 401.894 159.761 402.662C157.713 403.43 155.41 402.662 154.13 401.126L125.975 373.227L217.863 281.34L249.601 281.851L271.101 303.352C265.982 307.703 235.011 337.649 160.017 375.275Z" fill="white"/>
<path d="M157.97 405.221C155.922 405.221 153.874 404.453 152.595 402.918L124.696 375.019C124.184 374.507 123.928 373.995 123.928 373.227C123.928 372.459 124.184 371.947 124.696 371.435L216.583 279.548C217.095 279.036 217.863 278.78 218.375 278.78L250.113 279.292C250.881 279.292 251.393 279.548 251.905 280.06L273.405 301.56C273.917 302.072 274.173 302.84 274.173 303.608C274.173 304.375 273.917 304.887 273.149 305.399L271.357 306.935C244.226 330.739 207.369 354.542 161.553 377.322L165.904 395.495C166.672 398.822 165.136 402.406 162.065 404.197C160.529 404.965 159.249 405.221 157.97 405.221ZM129.815 373.227L156.178 399.334C156.946 400.614 158.482 401.126 159.761 400.358C161.041 399.59 161.553 398.054 160.785 396.775L156.434 378.346C155.922 376.042 156.946 373.995 158.993 372.971C204.297 350.191 240.899 326.643 267.774 303.352L248.833 284.411L219.399 283.899L129.815 373.227Z" fill="#FF6C37"/>
<path d="M104.219 395.239L126.231 373.227L158.993 405.989L106.779 402.406C104.475 402.15 102.939 400.102 103.195 397.799C103.195 396.775 103.451 395.751 104.219 395.239Z" fill="white"/>
<path d="M158.993 408.293L106.523 404.709C102.683 404.453 100.124 401.126 100.38 397.287C100.636 395.751 101.148 394.215 102.428 393.191L124.44 371.179C125.463 370.156 126.999 370.156 128.023 371.179L160.785 403.941C161.553 404.709 161.809 405.733 161.297 406.757C160.785 407.781 160.017 408.293 158.993 408.293ZM126.231 376.81L106.011 397.031C105.243 397.543 105.243 398.822 106.011 399.334C106.267 399.59 106.523 399.846 107.035 399.846L152.339 402.918L126.231 376.81Z" fill="#FF6C37"/>
<path d="M208.904 293.113C207.369 293.113 206.345 291.834 206.345 290.554C206.345 289.786 206.601 289.274 207.113 288.762L231.94 263.935C232.964 262.911 234.5 262.911 235.523 263.935L251.649 280.06C252.416 280.828 252.672 281.595 252.416 282.619C252.16 283.387 251.393 284.155 250.369 284.411L209.416 293.113C209.16 293.113 208.904 293.113 208.904 293.113ZM233.732 269.31L216.839 286.203L244.482 280.316L233.732 269.31Z" fill="#FF6C37"/>
<path d="M249.601 281.851L221.446 287.994C219.398 288.506 217.351 287.226 216.839 285.179C216.583 283.899 216.839 282.619 217.863 281.595L233.476 265.982L249.601 281.851Z" fill="white"/>
<path d="M220.934 290.554C217.351 290.554 214.535 287.738 214.535 284.155C214.535 282.363 215.303 280.828 216.327 279.548L231.94 263.935C232.964 262.911 234.5 262.911 235.523 263.935L251.648 280.06C252.416 280.828 252.672 281.595 252.416 282.619C252.16 283.387 251.393 284.155 250.369 284.411L222.214 290.554C221.702 290.554 221.19 290.554 220.934 290.554ZM233.732 269.31L219.91 283.131C219.398 283.643 219.398 284.155 219.654 284.667C219.91 285.179 220.422 285.435 221.19 285.435L244.738 280.316L233.732 269.31Z" fill="#FF6C37"/>
<path d="M406.501 129.815C405.989 128.279 404.197 127.511 402.661 128.023C401.126 128.535 400.358 130.327 400.87 131.862C400.87 132.118 401.126 132.374 401.126 132.63C402.662 135.702 402.15 139.541 400.102 142.357C399.078 143.636 399.334 145.428 400.358 146.452C401.638 147.476 403.429 147.22 404.453 145.94C408.292 141.077 409.06 134.934 406.501 129.815Z" fill="#FF6C37"/>
</svg>
