<svg width="82" height="100" viewBox="0 0 82 100" fill="none" xmlns="http://www.w3.org/2000/svg">
<path fill-rule="evenodd" clip-rule="evenodd" d="M0.773862 68.639C-0.243478 67.0344 -0.258847 64.9904 0.734242 63.3703L38.1259 2.37686C40.2057 -1.01557 45.2275 -0.718944 46.8935 2.89469L81.0526 76.9939C82.3198 79.7433 80.861 82.9781 77.961 83.8481L24.824 99.7893C22.686 100.43 20.3825 99.5711 19.1874 97.6859L0.773862 68.639ZM42.4401 20.2108C42.8004 18.4165 45.2589 18.1578 45.985 19.8377L69.5475 74.36C69.9908 75.3866 69.4389 76.5705 68.3673 76.8902L31.6538 87.8497C30.3043 88.2524 29.0116 87.0734 29.2889 85.6924L42.4401 20.2108Z" fill="#2D3748"/>
</svg>
