<svg width="100" height="92" viewBox="0 0 100 92" fill="none" xmlns="http://www.w3.org/2000/svg">
<path d="M75.0449 27.6591L51.1384 62.2247C50.885 62.5912 50.5184 62.8658 50.0944 63.0067C49.6704 63.1476 49.212 63.1463 48.7888 63.0047C48.3656 62.8625 48.0008 62.5866 47.7495 62.2194C47.4983 61.8516 47.3744 61.4124 47.3968 60.9685L48.3536 41.8847L32.9074 38.6089C32.5773 38.539 32.2698 38.389 32.012 38.1724C31.7542 37.9558 31.5541 37.6791 31.4294 37.367C31.3048 37.0548 31.2595 36.7167 31.2975 36.3827C31.3354 36.0488 31.4555 35.7291 31.6471 35.4521L55.5538 0.886489C55.8073 0.519801 56.1739 0.24533 56.5979 0.104622C57.0221 -0.0360861 57.4804 -0.0353586 57.9037 0.106805C58.3269 0.248902 58.6918 0.524629 58.9429 0.892177C59.1941 1.25966 59.318 1.69885 59.2955 2.14314L58.3388 21.2271L73.7847 24.5026C74.1148 24.5726 74.4224 24.7225 74.6804 24.9391C74.9384 25.1558 75.1382 25.4324 75.2626 25.7446C75.3876 26.0568 75.4326 26.3948 75.3949 26.7288C75.3572 27.0628 75.2368 27.3822 75.0449 27.6591Z" fill="#FCC72B"/>
<path d="M50.0096 91.2251C49.3737 91.2258 48.744 91.1014 48.1565 90.858C47.5691 90.6145 47.0355 90.2573 46.5865 89.8074L23.9975 67.22C23.0939 66.3118 22.5873 65.082 22.589 63.8006C22.5907 62.5192 23.1005 61.2901 24.0067 60.3844C24.9128 59.4781 26.1413 58.9681 27.4228 58.9661C28.7043 58.9648 29.9342 59.4708 30.8428 60.3745L50.0096 79.5391L91.7645 37.7862C92.6748 36.8906 93.9019 36.391 95.1787 36.3962C96.4561 36.4014 97.6793 36.911 98.5816 37.8139C99.4846 38.7169 99.9946 39.94 99.9999 41.2169C100.005 42.4939 99.5051 43.7212 98.6094 44.6314L53.4317 89.8074C52.9828 90.2579 52.4494 90.6145 51.8621 90.858C51.2748 91.1014 50.6452 91.2258 50.0096 91.2251Z" fill="#729B1B"/>
<path d="M49.9901 91.2251C50.626 91.2258 51.2557 91.1014 51.8431 90.858C52.4306 90.6145 52.9641 90.2573 53.4132 89.8074L76.0021 67.22C76.9058 66.3118 77.4125 65.082 77.4105 63.8006C77.4092 62.5192 76.8992 61.2901 75.9929 60.3844C75.0866 59.4781 73.8581 58.9681 72.5767 58.9661C71.2953 58.9648 70.0655 59.4708 69.1566 60.3745L49.9901 79.5391L8.23524 37.7862C7.32497 36.8906 6.09769 36.391 4.8208 36.3962C3.54384 36.4014 2.32067 36.911 1.41775 37.8139C0.514806 38.7169 0.00523984 39.94 4.01847e-05 41.2169C-0.00515947 42.4939 0.494431 43.7212 1.38999 44.6314L46.5679 89.8074C47.0168 90.2579 47.5503 90.6145 48.1376 90.858C48.7249 91.1014 49.3544 91.2258 49.9901 91.2251Z" fill="#729B1B" fill-opacity="0.5"/>
</svg>
